<svg width="51" height="61" viewBox="0 0 51 61" fill="none" xmlns="http://www.w3.org/2000/svg">
<path d="M25.5 60.2755C39.1866 60.2755 50.2817 49.0853 50.2817 35.2815C50.2817 21.4776 39.1866 10.2874 25.5 10.2874C11.8135 10.2874 0.718323 21.4776 0.718323 35.2815C0.718323 49.0853 11.8135 60.2755 25.5 60.2755Z" fill="#F86C44"/>
<path d="M25.5 61C20.4566 61 15.5264 59.4916 11.333 56.6656C7.13952 53.8397 3.87112 49.823 1.94108 45.1235C0.0110489 40.4241 -0.493936 35.2529 0.489987 30.264C1.47391 25.2751 3.90255 20.6925 7.46879 17.0957C11.035 13.4989 15.5787 11.0495 20.5252 10.0571C25.4717 9.06476 30.5989 9.57407 35.2584 11.5206C39.918 13.4672 43.9005 16.7636 46.7025 20.993C49.5045 25.2224 51 30.1948 51 35.2815C50.9981 42.1019 48.3109 48.6423 43.5291 53.4651C38.7474 58.2878 32.2624 60.9981 25.5 61ZM25.5 10.9394C20.7407 10.9394 16.0883 12.3628 12.1311 15.0296C8.17391 17.6964 5.08965 21.4868 3.26835 25.9214C1.44705 30.3561 0.970512 35.2359 1.899 39.9438C2.82749 44.6516 5.11931 48.9761 8.48463 52.3702C11.85 55.7644 16.1376 58.0758 20.8055 59.0123C25.4733 59.9487 30.3117 59.4681 34.7087 57.6312C39.1057 55.7943 42.8639 52.6836 45.508 48.6925C48.1521 44.7014 49.5634 40.0091 49.5634 35.209C49.5634 32.0219 48.941 28.866 47.7317 25.9214C46.5224 22.9769 44.7499 20.3015 42.5154 18.0478C40.2809 15.7942 37.6282 14.0065 34.7087 12.7868C31.7892 11.5672 28.6601 10.9394 25.5 10.9394Z" fill="#080808"/>
<path d="M18.5324 42.3812C22.4202 42.3812 25.5718 37.9376 25.5718 32.4561C25.5718 26.9745 22.4202 22.5309 18.5324 22.5309C14.6446 22.5309 11.493 26.9745 11.493 32.4561C11.493 37.9376 14.6446 42.3812 18.5324 42.3812Z" fill="#F2EAE0"/>
<path d="M18.5324 43.1057C14.2944 43.1057 10.7747 38.3242 10.7747 32.456C10.7747 26.5879 14.2225 21.8064 18.5324 21.8064C22.8423 21.8064 26.2901 26.5879 26.2901 32.456C26.2901 38.3242 22.8423 43.1057 18.5324 43.1057ZM18.5324 23.2553C15.0845 23.2553 12.2113 27.3848 12.2113 32.456C12.2113 37.5273 15.0127 41.6568 18.5324 41.6568C22.0521 41.6568 24.8535 37.5273 24.8535 32.456C24.8535 27.3848 22.0521 23.2553 18.5324 23.2553Z" fill="#080808"/>
<path d="M32.324 42.3812C36.2117 42.3812 39.3634 37.9376 39.3634 32.4561C39.3634 26.9745 36.2117 22.5309 32.324 22.5309C28.4362 22.5309 25.2845 26.9745 25.2845 32.4561C25.2845 37.9376 28.4362 42.3812 32.324 42.3812Z" fill="#F2EAE0"/>
<path d="M32.3239 43.1057C28.0859 43.1057 24.5662 38.3242 24.5662 32.456C24.5662 26.5879 28.0141 21.8064 32.3239 21.8064C36.6338 21.8064 40.0817 26.5879 40.0817 32.456C40.0817 38.3242 36.6338 43.1057 32.3239 43.1057ZM32.3239 23.2553C28.8761 23.2553 26.0028 27.3848 26.0028 32.456C26.0028 37.5273 28.8042 41.6568 32.3239 41.6568C35.8437 41.6568 38.6451 37.5273 38.6451 32.456C38.6451 27.3848 35.8437 23.2553 32.3239 23.2553Z" fill="#080808"/>
<path d="M25.3563 34.7019H28.0141C28.947 34.7038 29.8411 35.0784 30.5008 35.7438C31.1605 36.4091 31.5319 37.3109 31.5338 38.2518C31.5319 39.1927 31.1605 40.0945 30.5008 40.7598C29.8411 41.4251 28.947 41.7997 28.0141 41.8017H25.3563" fill="#F86C44"/>
<path d="M28.0141 42.5261H25.3563V41.0772H28.0141C28.7571 41.0772 29.4696 40.7795 29.995 40.2496C30.5203 39.7198 30.8155 39.0011 30.8155 38.2518C30.8155 37.5024 30.5203 36.7838 29.995 36.2539C29.4696 35.724 28.7571 35.4263 28.0141 35.4263H25.3563V33.9774H28.0141C29.1375 33.9793 30.2143 34.4303 31.0087 35.2315C31.8031 36.0326 32.2502 37.1187 32.2521 38.2518C32.2569 38.8144 32.1505 39.3724 31.9393 39.8932C31.728 40.414 31.416 40.8871 31.0215 41.2849C30.627 41.6828 30.1579 41.9975 29.6415 42.2106C29.1252 42.4237 28.572 42.5309 28.0141 42.5261Z" fill="#080808"/>
<path d="M21.262 29.9204C20.7335 29.9195 20.21 30.0237 19.7215 30.2273C19.233 30.4308 18.7892 30.7296 18.4155 31.1066C18.0418 31.4835 17.7455 31.9311 17.5437 32.4237C17.3419 32.9164 17.2385 33.4444 17.2394 33.9774C17.2476 34.5515 17.3697 35.1181 17.5986 35.6437L20.1127 35.7886L19.3225 37.5273C19.7835 37.7803 20.29 37.9379 20.8121 37.9909C21.3343 38.044 21.8617 37.9913 22.3634 37.8362C22.8652 37.681 23.3312 37.4263 23.7341 37.0872C24.137 36.748 24.4687 36.3312 24.7099 35.861C25.1988 34.9183 25.2996 33.8192 24.9903 32.8021C24.681 31.7849 23.9866 30.9317 23.0578 30.4275C22.5113 30.1081 21.8935 29.9336 21.262 29.9204Z" fill="#021023"/>
<path d="M35.4127 29.9204C34.8842 29.9195 34.3607 30.0237 33.8722 30.2273C33.3837 30.4308 32.9399 30.7296 32.5662 31.1066C32.1925 31.4835 31.8962 31.9311 31.6944 32.4237C31.4926 32.9164 31.3892 33.4444 31.3901 33.9774C31.3983 34.5515 31.5204 35.1181 31.7493 35.6437L34.5507 35.7161L33.4732 37.5273C33.9369 37.7953 34.4493 37.9665 34.98 38.0307C35.5106 38.095 36.0486 38.051 36.562 37.9014C37.0754 37.7517 37.5538 37.4995 37.9686 37.1597C38.3835 36.8199 38.7263 36.3994 38.9768 35.9232C39.2273 35.4471 39.3803 34.925 39.4268 34.3881C39.4732 33.8511 39.4121 33.3102 39.2472 32.7975C39.0822 32.2848 38.8167 31.8108 38.4665 31.4037C38.1162 30.9965 37.6884 30.6646 37.2084 30.4275C36.662 30.1081 36.0441 29.9336 35.4127 29.9204Z" fill="#021023"/>
<path d="M39.3634 32.7459V32.4561C39.3634 26.9501 36.2028 22.5309 32.3239 22.5309C28.9479 22.5309 26.0746 25.9359 25.4282 30.5C24.7817 26.0083 21.9084 22.5309 18.5324 22.5309C14.6535 22.5309 11.493 26.9501 11.493 32.4561V32.7459H39.3634Z" fill="#F86C44"/>
<path d="M25.4282 35.5712L25.1408 33.4703H10.8465V32.456C10.8465 26.5879 14.2944 21.8064 18.6042 21.8064C21.5493 21.8064 24.207 24.1247 25.5 27.6021C26.7929 24.1247 29.4507 21.8064 32.3958 21.8064C36.6338 21.8064 40.1535 26.5879 40.1535 32.456V33.4703H25.8591L25.4282 35.5712ZM25.931 32.0214H38.5732C38.4296 27.1674 35.6282 23.2553 32.2521 23.2553C29.307 23.2553 26.7211 26.3705 26.0746 30.5724L25.931 32.0214ZM12.2831 32.0214H24.9253L24.7098 30.6449C24.1352 26.3705 21.4774 23.3278 18.5324 23.3278C15.2282 23.2553 12.4267 27.1674 12.2831 32.0214Z" fill="#080808"/>
<path d="M9.33804 0.652041C9.33804 0.652041 10.7028 8.62116 14.7972 12.0261C18.8916 15.4311 23.5606 16.5903 25.2845 14.4893L25.3563 14.4169L25.4282 14.3444C27.224 12.2435 25.3563 7.67936 21.3338 4.27437C17.3113 0.869381 9.33804 0.579594 9.33804 0.652041Z" fill="#609C3F"/>
<path d="M22.5549 16.3005C20.1845 16.3005 17.0958 14.9964 14.2944 12.6057C10.1282 9.05582 8.69154 1.0867 8.61971 0.796912L8.54788 0.507126L8.90704 0H9.19436C9.26619 0 17.4549 0 21.7648 3.76722C26.0746 7.53444 28.0141 12.4608 25.931 14.8515L25.8592 14.924L25.7155 15.0689C25.3101 15.4949 24.817 15.826 24.2709 16.0388C23.7247 16.2516 23.139 16.3409 22.5549 16.3005ZM10.2 1.37648C10.7028 3.47744 12.2113 8.91093 15.2282 11.4466C18.8915 14.5618 23.2732 15.7209 24.7099 13.9822L24.9254 13.7648C26.362 12.0261 24.5662 7.89668 20.9028 4.70903C17.9577 2.24584 12.4268 1.52138 10.2 1.37648Z" fill="#080808"/>
<path d="M9.87861 0.202919L8.94751 1.30634L24.8658 14.97L25.7969 13.8666L9.87861 0.202919Z" fill="#080808"/>
<path d="M16.9896 1.52676L15.5628 1.69556L16.1988 7.16401L17.6256 6.99521L16.9896 1.52676Z" fill="#080808"/>
<path d="M20.4986 4.03865L20.3058 10.6284L21.7418 10.6711L21.9346 4.08138L20.4986 4.03865Z" fill="#080808"/>
<path d="M18.3728 8.09618L13.4428 10.2871L14.0221 11.613L18.9521 9.4221L18.3728 8.09618Z" fill="#080808"/>
<path d="M13.4379 3.77072L10.471 4.86932L10.9661 6.22948L13.9331 5.13088L13.4379 3.77072Z" fill="#080808"/>
<path d="M23.0179 11.9932L18.7546 14.0848L19.3831 15.3877L23.6463 13.2962L23.0179 11.9932Z" fill="#080808"/>
<path d="M24.1354 8.30844L23.7003 13.5788L25.1319 13.699L25.5671 8.42867L24.1354 8.30844Z" fill="#080808"/>
<path d="M46.8338 10.4323C46.8338 10.5048 41.3747 16.3729 36.131 17.0249C30.8873 17.677 26.362 16.0107 26.0028 13.2577V12.9679C25.6437 10.215 29.5944 7.462 34.838 6.73753C40.0817 6.01307 46.8338 10.4323 46.8338 10.4323Z" fill="#609C3F"/>
<path d="M33.8324 17.8943C32.1944 17.9131 30.5658 17.6434 29.0197 17.0974C26.8648 16.3005 25.5 14.9965 25.2845 13.3302V13.0404C25.2327 12.5073 25.2887 11.9692 25.4492 11.4586C25.6097 10.948 25.8714 10.4756 26.2183 10.0701C27.7268 8.0416 31.031 6.52022 34.7662 6.01309C39.7226 5.36107 47.3366 9.20074 47.5521 10.215V10.3599C47.5521 11.1568 41.3747 17.025 36.2028 17.677C35.426 17.8569 34.6286 17.93 33.8324 17.8943ZM36.0592 7.46202C35.6747 7.45003 35.2899 7.47428 34.9099 7.53447C31.6056 7.96915 28.5887 9.34563 27.2958 11.0119C27.0705 11.2676 26.8975 11.5656 26.7865 11.8888C26.6756 12.212 26.629 12.5541 26.6493 12.8955V13.1129C26.793 14.1996 27.7986 15.1414 29.4507 15.7209C31.582 16.4185 33.8477 16.5924 36.0592 16.2281C40.0099 15.7209 44.1761 11.9537 45.6845 10.5048C44.0324 9.63542 39.8662 7.46202 36.0592 7.46202Z" fill="#080808"/>
<path d="M46.5892 9.72598L25.8609 12.4449L26.0462 13.8817L46.7745 11.1628L46.5892 9.72598Z" fill="#080808"/>
<path d="M39.8872 6.97135L36.4066 11.2131L37.5134 12.1369L40.994 7.89513L39.8872 6.97135Z" fill="#080808"/>
<path d="M34.3951 6.42375L30.9992 12.0569L32.2267 12.8096L35.6226 7.17649L34.3951 6.42375Z" fill="#080808"/>
<path d="M35.1808 11.7096L33.9788 12.5032L36.9295 17.0493L38.1315 16.2557L35.1808 11.7096Z" fill="#080808"/>
<path d="M29.2938 12.4857L28.0633 13.2335L30.4729 17.2669L31.7034 16.5191L29.2938 12.4857Z" fill="#080808"/>
<path d="M28.9745 8.00125L26.4659 12.7277L27.7325 13.4115L30.2411 8.68505L28.9745 8.00125Z" fill="#080808"/>
<path d="M24.7099 46.9454C22.1519 46.935 19.6013 46.668 17.0958 46.1485C18.2451 50.6402 21.7648 53.9003 25.931 53.9003C30.3127 53.9003 33.9761 50.2779 34.9099 45.4965C31.6048 46.5094 28.1637 46.9982 24.7099 46.9454Z" fill="#EEEEE7"/>
<path d="M25.8592 54.6971C21.4775 54.6971 17.5986 51.2921 16.3775 46.3658L16.0901 45.2066L17.2394 45.424C19.6965 45.9435 22.1994 46.2105 24.7099 46.2209C28.062 46.2363 31.3993 45.7729 34.6225 44.8444L35.7718 44.4822L35.5563 45.6413C34.4789 50.9299 30.4563 54.6971 25.8592 54.6971ZM18.1014 47.1627C19.4662 50.785 22.4831 53.2482 25.8592 53.2482C29.3789 53.2482 32.6113 50.4952 33.8324 46.5831C30.8538 47.3646 27.7876 47.7543 24.7099 47.7423C22.495 47.7323 20.2847 47.5384 18.1014 47.1627Z" fill="#080808"/>
<path d="M37.7831 43.8302C34.1212 46.1381 29.8899 47.3618 25.5718 47.3618C21.2537 47.3618 17.0225 46.1381 13.3606 43.8302" fill="#F86C44"/>
<path d="M25.5718 48.0321C21.1288 48.03 16.7749 46.7753 13.0014 44.4098C12.8395 44.3041 12.7258 44.1378 12.6854 43.9476C12.645 43.7574 12.6811 43.5588 12.7859 43.3955C12.8907 43.2322 13.0555 43.1175 13.2441 43.0768C13.4327 43.036 13.6296 43.0725 13.7916 43.1782C17.3338 45.4148 21.4286 46.601 25.6078 46.601C29.7869 46.601 33.8817 45.4148 37.424 43.1782C37.5041 43.1258 37.5937 43.0899 37.6877 43.0726C37.7816 43.0552 37.878 43.0566 37.9714 43.0768C38.0648 43.097 38.1533 43.1355 38.2319 43.1902C38.3105 43.2449 38.3777 43.3146 38.4296 43.3955C38.4815 43.4764 38.5171 43.5667 38.5343 43.6615C38.5515 43.7562 38.5501 43.8535 38.5301 43.9476C38.5101 44.0418 38.4719 44.1311 38.4177 44.2104C38.3635 44.2897 38.2943 44.3574 38.2141 44.4098C34.4247 46.7992 30.0409 48.0553 25.5718 48.0321Z" fill="#080808"/>
<path d="M22.2676 53.6829C23.9338 53.6829 25.2845 53.0666 25.2845 52.3064C25.2845 51.5462 23.9338 50.9299 22.2676 50.9299C20.6014 50.9299 19.2507 51.5462 19.2507 52.3064C19.2507 53.0666 20.6014 53.6829 22.2676 53.6829Z" fill="#E54B4D"/>
<path d="M22.2676 54.4074C20.4 54.4074 18.5324 53.6829 18.5324 52.3064C18.5324 49.5535 26.0028 49.5535 26.0028 52.3064C26.0028 53.6829 24.1352 54.4074 22.2676 54.4074ZM22.2676 51.6544C20.831 51.6544 20.0409 52.1615 19.969 52.3064C20.0409 52.4513 20.831 52.886 22.2676 52.886C23.7042 52.886 24.4944 52.3789 24.5662 52.234C23.8761 51.8099 23.0744 51.6077 22.2676 51.6544Z" fill="#080808"/>
<path d="M26.362 54.4074C28.0282 54.4074 29.3789 53.7911 29.3789 53.0309C29.3789 52.2707 28.0282 51.6544 26.362 51.6544C24.6958 51.6544 23.3451 52.2707 23.3451 53.0309C23.3451 53.7911 24.6958 54.4074 26.362 54.4074Z" fill="#E54B4D"/>
<path d="M26.362 55.1319C24.4944 55.1319 22.6268 54.4074 22.6268 53.0309C22.6268 50.2779 30.0972 50.2779 30.0972 53.0309C30.0972 54.4074 28.2296 55.1319 26.362 55.1319ZM26.362 52.3789C24.9254 52.3789 24.1352 52.886 24.0634 53.0309C24.1352 53.1758 24.9254 53.6105 26.362 53.6105C27.7986 53.6105 28.5887 53.1034 28.6606 52.9585C28.5887 52.8136 27.7986 52.3789 26.362 52.3789Z" fill="#080808"/>
<path d="M31.1747 52.0891L28.7324 53.4656L22.6986 52.5962L21.1183 52.7411L21.9803 55.5665C21.9803 55.5665 22.9141 58.4644 27.0085 56.7257L31.1028 54.987L31.1747 52.0891Z" fill="#080808"/>
<path d="M25.8592 54.1176C21.8366 54.1176 18.1732 51.0024 17.0958 46.5107L16.9521 45.9311L17.5268 46.076C19.9135 46.5715 22.345 46.8143 24.7817 46.8005H24.9972C28.178 46.7993 31.3438 46.3606 34.4071 45.4965L34.9817 45.3516L34.838 45.9311C33.8324 50.7126 30.169 54.1176 25.8592 54.1176ZM17.9578 46.8729C19.1789 50.7126 22.3394 53.3931 25.8592 53.3931C29.6662 53.3931 32.8986 50.4953 33.9761 46.3658C30.9799 47.1827 27.8851 47.5729 24.7817 47.525C22.4917 47.5269 20.2067 47.3086 17.9578 46.8729Z" fill="#080808"/>
<path d="M14.869 49.9156L18.8916 50.0605L21.3338 52.7411L23.7761 53.6829L27.6549 53.8278L31.2465 52.0166L33.1141 50.6401L37.9986 53.9727C37.9986 53.9727 40.8 56.2185 30.7437 56.7256C20.6873 57.2328 20.9747 57.3052 20.9747 57.3052L15.2282 55.2767L14.869 49.9156Z" fill="#F86C44"/>
<path d="M25.8592 54.6971C21.4775 54.6971 17.5986 51.2921 16.3775 46.3658L16.0901 45.2066L17.2394 45.424C19.6965 45.9435 22.1994 46.2105 24.7099 46.2209C28.062 46.2363 31.3993 45.7729 34.6225 44.8444L35.7718 44.4822L35.5563 45.6413C34.4789 50.9299 30.4563 54.6971 25.8592 54.6971ZM18.1014 47.1627C19.4662 50.785 22.4831 53.2482 25.8592 53.2482C29.3789 53.2482 32.6113 50.4952 33.8324 46.5831C30.8538 47.3646 27.7876 47.7543 24.7099 47.7423C22.495 47.7323 20.2847 47.5384 18.1014 47.1627Z" fill="#080808"/>
</svg>
